# xmcd
#
# Track frame offsets:
#	150
#	14083
#	34715
#	53491
#	65438
#	83462
#	100073
#	126420
#	190905
#	220903
#
# Disc length: 3718 seconds
#
# Revision: 0
# Processed by: cddbd v1.5.2PL0 Copyright (c) Steve Scherf et al.
# Submitted via: audiograbber 1.83.01
#
DISCID=820e840a
DTITLE=Fergus McElligott - It's the simple things
DYEAR=1900
DGENRE=Country
TTITLE0=Dirty old town
TTITLE1=Black velvet band
TTITLE2=The red rose cafe' 
TTITLE3=Da dum dum
TTITLE4=The wild rover
TTITLE5=Whiskey in the jar
TTITLE6=We are the world (Live)
TTITLE7=The drunken sailor (Live)
TTITLE8=Loch lomond (Live)
TTITLE9=Tell me ma (Live)
EXTD=
EXTT0=
EXTT1=
EXTT2=
EXTT3=
EXTT4=
EXTT5=
EXTT6=
EXTT7=
EXTT8=
EXTT9=
PLAYORDER=
